<?xml version="1.0" standalone="no"?>
<!DOCTYPE svg PUBLIC "-//W3C//DTD SVG 20010904//EN"
 "http://www.w3.org/TR/2001/REC-SVG-20010904/DTD/svg10.dtd">
<svg version="1.0" xmlns="http://www.w3.org/2000/svg"
 width="16.000000pt" height="16.000000pt" viewBox="0 0 16.000000 16.000000"
 preserveAspectRatio="xMidYMid meet">
<metadata>
Created by potrace 1.11, written by Peter Selinger 2001-2013
</metadata>
<g transform="translate(0.000000,16.000000) scale(0.003125,-0.003125)"
fill="#000000" stroke="none">
<path d="M2198 5115 c-1 -1 -52 -5 -113 -9 -60 -3 -132 -8 -160 -11 -27 -2
-79 -7 -115 -10 -36 -4 -74 -8 -85 -10 -11 -2 -47 -7 -80 -10 -33 -3 -67 -8
-75 -10 -8 -2 -37 -6 -65 -10 -82 -10 -250 -43 -455 -90 -55 -13 -206 -61
-279 -89 -350 -135 -500 -294 -437 -461 20 -50 88 -125 156 -172 176 -120 531
-239 890 -298 19 -3 42 -8 50 -10 8 -2 40 -7 70 -10 30 -3 62 -8 70 -10 8 -2
38 -6 65 -10 28 -3 66 -8 85 -10 19 -3 64 -7 100 -10 36 -3 81 -8 100 -10 221
-26 1122 -27 1280 -1 14 3 57 7 95 11 119 11 156 15 330 41 55 8 134 22 175
30 41 9 86 18 100 20 276 51 615 180 756 287 325 247 89 527 -591 701 -114 30
-277 64 -385 81 -19 3 -42 7 -50 10 -8 2 -40 6 -71 10 -31 3 -66 7 -77 10 -11
2 -49 6 -84 10 -35 3 -74 7 -88 10 -22 4 -82 9 -250 22 -66 5 -857 13 -862 8z"/>
<path d="M320 3562 c0 -464 -1 -453 86 -537 65 -64 119 -99 238 -156 89 -42
336 -131 399 -143 12 -2 72 -15 132 -29 61 -14 127 -28 149 -31 21 -4 41 -8
45 -10 3 -2 29 -7 56 -10 55 -8 96 -14 135 -21 14 -2 52 -7 85 -11 33 -3 67
-8 76 -9 9 -2 52 -6 95 -10 43 -4 90 -8 104 -11 157 -25 1138 -25 1277 0 10 2
54 7 98 10 44 4 91 9 105 11 14 3 45 7 70 9 25 3 61 8 80 11 19 3 55 8 80 10
25 3 52 8 61 11 10 2 30 6 45 9 16 2 54 9 84 15 30 6 66 14 80 16 371 72 741
234 844 369 56 73 56 71 56 510 l0 405 -62 -38 c-35 -21 -79 -45 -98 -54 -129
-60 -171 -76 -305 -120 -125 -42 -292 -86 -392 -104 -13 -2 -35 -6 -50 -9 -95
-19 -193 -35 -261 -45 -43 -6 -87 -12 -98 -14 -10 -2 -50 -7 -87 -11 -37 -3
-76 -8 -86 -10 -11 -2 -59 -6 -107 -10 -49 -4 -109 -9 -134 -11 -301 -25 -799
-25 -1130 1 -147 12 -177 14 -210 19 -19 2 -62 7 -95 11 -33 3 -71 7 -85 9
-14 3 -44 7 -66 10 -39 5 -210 32 -262 41 -12 2 -30 6 -40 9 -9 3 -33 7 -52
10 -19 3 -89 19 -155 35 -276 69 -467 140 -632 237 l-73 43 0 -407z"/>
<path d="M320 2284 c0 -463 -1 -451 81 -535 79 -80 192 -146 370 -215 83 -32
237 -80 288 -90 14 -3 28 -7 31 -9 4 -2 22 -7 41 -10 19 -3 54 -11 79 -16 25
-6 56 -13 70 -15 14 -2 48 -9 75 -14 28 -5 66 -12 85 -15 19 -3 42 -7 50 -10
8 -2 40 -6 70 -10 30 -3 66 -7 80 -10 24 -4 67 -9 180 -20 30 -3 73 -8 95 -10
235 -26 1129 -26 1285 -1 14 3 57 7 95 11 119 11 156 15 330 41 55 8 134 22
175 30 41 9 86 18 100 20 359 67 741 234 844 369 56 73 56 71 56 510 l0 405
-62 -38 c-35 -21 -79 -45 -98 -54 -129 -60 -171 -76 -305 -120 -82 -27 -199
-61 -260 -75 -130 -29 -132 -30 -180 -37 -20 -4 -40 -8 -44 -10 -3 -2 -26 -7
-51 -10 -25 -3 -54 -8 -65 -10 -23 -4 -98 -16 -135 -21 -14 -2 -43 -6 -65 -9
-70 -9 -294 -33 -390 -40 -321 -26 -947 -27 -1150 -1 -16 2 -67 6 -113 9 -45
4 -97 8 -115 10 -18 3 -58 8 -91 11 -32 4 -68 8 -80 10 -11 2 -41 6 -66 9 -25
3 -54 8 -65 10 -11 2 -42 7 -70 10 -221 31 -552 115 -745 189 -110 43 -278
126 -315 157 -13 11 -15 -30 -15 -396z"/>
<path d="M320 1003 c0 -378 2 -411 19 -449 62 -136 288 -266 641 -369 108 -31
285 -71 400 -90 19 -3 42 -8 50 -10 8 -2 40 -7 70 -10 30 -3 62 -8 70 -10 8
-2 38 -6 65 -10 28 -3 66 -8 85 -10 19 -3 64 -7 100 -10 36 -3 81 -8 100 -10
220 -26 1135 -27 1277 -1 10 2 54 7 98 10 44 4 91 9 105 11 14 3 45 7 70 9 25
3 61 8 80 11 19 3 55 8 80 10 25 3 52 8 61 11 10 2 30 6 45 9 16 2 54 9 84 15
30 6 66 14 80 16 371 72 741 234 844 369 56 73 56 71 56 510 l0 405 -62 -38
c-35 -21 -79 -45 -98 -54 -129 -60 -171 -76 -305 -120 -125 -42 -292 -86 -392
-104 -13 -2 -35 -6 -50 -9 -95 -19 -193 -35 -261 -45 -43 -6 -87 -12 -98 -14
-10 -2 -50 -7 -87 -11 -37 -3 -76 -8 -86 -10 -11 -2 -59 -6 -107 -10 -49 -4
-109 -9 -134 -11 -298 -25 -836 -25 -1130 1 -25 2 -79 7 -120 10 -41 3 -86 8
-100 10 -14 2 -54 6 -90 10 -36 3 -76 7 -90 10 -14 2 -43 7 -65 10 -156 22
-327 51 -357 61 -20 6 -51 12 -98 20 -19 3 -38 8 -42 11 -5 2 -16 6 -25 8
-179 34 -544 177 -654 256 l-29 20 0 -408z"/>
</g>
</svg>
